<?xml version="1.0" standalone="no"?>
<!DOCTYPE svg PUBLIC "-//W3C//DTD SVG 1.1//EN" "http://www.w3.org/Graphics/SVG/1.1/DTD/svg11.dtd" >
<svg xmlns="http://www.w3.org/2000/svg" xmlns:xlink="http://www.w3.org/1999/xlink" version="1.1">
<metadata>
Created by FontForge 20150318 at Tue Apr 28 06:47:48 2015
 By uniteet7
HTTP://www.gjjc.com  EMAIL:www@gjjc.com  OICQ:24493288
</metadata>
<defs>
<font id="JSaoEr" horiz-adv-x="256" >
  <font-face 
    font-family=""
    font-weight="400"
    font-stretch="normal"
    units-per-em="256"
    panose-1="3 0 5 9 0 0 0 0 0 0"
    ascent="204"
    descent="-52"
    bbox="7.96 -32 251.333 215.059"
    underline-thickness="12"
    underline-position="-46"
    unicode-range="U+0027-9996"
  />
<missing-glyph 
 />
    <glyph glyph-name=".notdef" 
 />
    <glyph glyph-name="quotesingle" unicode="'" horiz-adv-x="36" 
d="M27 153v-33q0 -12 -10 -12q-7 -1 -6 11q0 16 2 32q0 15 6 16q8 0 8 -14z" />
    <glyph glyph-name="uni4E0B" unicode="&#x4e0b;" 
d="M208 194q26 -1 27 -14q1 -15 -25 -14q-3 -1 -9 -1q-42 -2 -67 -1q2 -8 4 -31v-43v-34q1 -17 1 -56q-1 -23 -16 -23q-17 -1 -17 21q-1 100 1 136q0 25 7 30q-39 -1 -65 1q-29 1 -28 16q-1 11 30 13h73h84zM206 94q21 -2 23 -24q-2 -22 -23 -23q-22 2 -23 23q1 22 23 24z
" />
    <glyph glyph-name="uni4E48" unicode="&#x4e48;" 
d="M167 149q12 11 20 6q11 -9 4 -17q-35 -46 -98 -113q-7 -8 4 -10q25 -2 98 9l-3 6q-5 14 -8 24q-5 14 4 18q10 5 21 -6q16 -22 32 -61q7 -14 -1 -21q-11 -6 -19 -1q-7 6 -14 17q-13 -2 -52 -6q-40 -5 -73 -7q-27 -1 -36 13q-7 11 13 33q25 28 70 75q24 26 38 41zM128 201
q10 -6 2 -22q-27 -39 -79 -84q-13 -10 -22 1q-7 8 2 20q44 45 70 75q14 16 27 10z" />
    <glyph glyph-name="uni4E66" unicode="&#x4e66;" 
d="M114 204q7 0 11 -11q3 -6 4 -12q30 0 38 -2q26 -3 29 -25q3 -16 -4 -42q15 -1 28 -8q15 -8 14 -34q-2 -40 -10 -59q-7 -19 -24 -20q-12 1 -31 11q-10 8 -4 19q4 9 17 4q12 -5 15 4q3 10 7 34q3 22 -18 23q-20 0 -31 -1q-13 0 -24 -1v-46v-44q-1 -21 -17 -22q-16 2 -15 20
v90q-20 -2 -34 -3q-13 0 -18 1q-27 0 -25 13q-1 10 29 14q12 0 48 3v11q1 23 1 32q-14 0 -29 -2h-10q-23 -2 -23 12q-3 10 20 13h6q25 3 37 4q0 6 2 11q1 14 11 13zM215 194q22 1 24 -20q-2 -20 -20 -20q-21 0 -21 20q0 18 17 20zM131 154v-42q2 0 14 1q11 0 16 1q4 14 5 25
q1 12 -13 15h-22z" />
    <glyph glyph-name="uni4E8B" unicode="&#x4e8b;" 
d="M124 70v13q-14 -1 -32 -1q-16 -1 -28 -2q-36 -6 -31 8q-1 9 26 12q16 2 32 3q16 2 32 2q-1 8 0 9q-43 0 -51 -1q-4 -5 -12 -4q-12 -2 -15 14q-2 14 -2 29q-1 14 9 12q6 0 13 -4q3 3 15 4q12 2 42 4v7q-15 0 -40 -1q-17 -1 -24 0q-25 -1 -24 13q-4 11 25 11q8 0 32 1
q13 0 31 1q-1 15 11 15q11 1 14 -15h27h31q23 -1 24 -9q0 -14 -23 -13q-32 -2 -56 -2q0 -1 -1 -2q0 -7 1 -6h29q31 -2 35 -15q3 -10 2 -18q4 -4 6 -10q1 -12 -16 -12q-41 0 -54 1v-8q24 -1 40 -3q27 -3 32 -30l12 -2q10 -5 10 -12t-10 -9q-3 -1 -10 -1q0 -8 -3 -20
q4 -5 3 -10q-1 -10 -17 -11q-8 -2 -55 -1q-1 -9 -3 -19q-4 -18 -18 -18q-21 -1 -36 14q-6 7 -3 15q6 3 17 1q10 -4 12 0v7q-24 -2 -61 -1q-31 0 -28 13q-1 10 26 11q13 -1 42 1q15 1 22 2v13q-37 -2 -81 -2q-33 -3 -28 12q-3 9 27 10h8q46 3 74 4zM122 135v14q-4 0 -20 -2
h-9q-16 -3 -24 1q1 -7 2 -15q27 1 51 2zM154 48v-14h40q2 12 1 15q-13 -2 -41 -1zM151 150q-1 -6 0 -14q1 0 13 -1h23q3 15 -4 14q-8 1 -32 1zM153 84v-13h27q12 1 16 1q2 10 -14 12h-29z" />
    <glyph glyph-name="uni4EAC" unicode="&#x4eac;" 
d="M168 137q28 -2 43 -15q12 -14 6 -38q7 -7 7 -11q-1 -11 -27 -13q-21 -2 -45 -2q4 -37 2 -58q-1 -26 -23 -25q-15 0 -28 13q-10 11 -3 18q5 5 15 3q8 -4 8 3q1 9 1 20v26q-26 -1 -46 2q-5 -8 -12 -6q-13 0 -17 24q-2 14 -2 34q0 19 13 23q7 0 14 -12q1 8 27 11q39 6 67 3z
M126 203q22 -2 25 -18q0 -8 -1 -10q23 0 36 -1h25q34 0 32 -14q2 -13 -36 -13q-19 -1 -51 -1q-76 -2 -106 -1q-29 0 -25 12q-3 12 25 15q10 1 37 2q10 0 20 1q-2 3 -1 8q1 19 20 20zM174 111q-27 5 -64 0q-22 -2 -33 2q0 -6 1 -18t2 -17q5 3 22 3h16q40 2 68 4q3 7 3 14
q0 10 -15 12zM221 38q19 -2 22 -21q-3 -17 -20 -21q-22 1 -23 20q1 20 21 22zM58 26q18 -2 20 -21q-3 -17 -18 -18q-20 2 -22 19q0 19 20 20z" />
    <glyph glyph-name="uni4EC0" unicode="&#x4ec0;" 
d="M167 201q12 -1 14 -23q0 -3 1 -21q1 -11 2 -15h34q27 -1 28 -15q0 -12 -26 -13q-8 -1 -35 -1v-9q2 -67 1 -101q1 -31 -15 -28q-17 0 -17 26q-1 30 -1 55t1 56q-10 -1 -19 -1q-8 0 -20 2q-28 1 -27 12q0 13 29 14q19 1 37 2v35q1 26 13 25zM91 197q12 -10 -1 -29
q-6 -7 -24 -29q12 -1 14 -43q1 -25 2 -49v-40q1 -29 -16 -28q-17 -2 -16 28q0 49 1 73q1 26 4 46q-2 -1 -6 -5t-5 -4q-20 -16 -28 -5q-8 6 11 31q22 28 36 43q15 20 28 11z" />
    <glyph glyph-name="uni4EE3" unicode="&#x4ee3;" 
d="M146 199q13 2 19 -25q1 -8 4 -16q1 -6 2 -8q17 1 46 1q15 -1 17 -14q-1 -11 -15 -12l-42 -7q12 -57 30 -94q3 -8 6 -6q2 2 4 13q0 23 14 20q15 3 16 -27q0 -40 -26 -49q-24 -1 -44 41q-25 55 -32 98q-15 -2 -34 -1q-14 0 -17 9q-6 9 7 15q15 4 39 9q-1 3 -1 9
q-1 13 -1 26q-1 18 8 18zM86 198q10 -10 4 -23q-3 -6 -2 -4q-15 -31 -24 -45q13 1 15 -37q1 -18 2 -41q0 -23 1 -45q0 -29 -17 -29q-14 1 -14 30q-1 50 -1 43q0 12 1 26q0 11 1 38q-17 -15 -25 -8q-11 6 1 30q13 24 34 54q14 17 24 11zM212 202q18 0 19 -19q-2 -19 -19 -20
q-20 1 -21 20q2 18 21 19z" />
    <glyph glyph-name="uni4F18" unicode="&#x4f18;" 
d="M161 193q10 -3 9 -18q-1 -4 -2 -12t-1 -11q26 2 33 3q-12 4 -12 18q-1 18 19 18q16 -1 19 -16q0 -16 -12 -20q15 -4 15 -14q0 -13 -28 -14q-22 -2 -40 -3q-19 -72 -39 -123q-15 -29 -30 -23q-12 4 0 32q18 48 37 112q-3 0 -7 -1q-11 0 -18 1q-19 -1 -19 11q-3 9 17 12
q5 1 17 2q9 1 17 3q5 15 10 29q4 18 15 14zM80 191q10 -5 3 -21q-8 -22 -21 -47q17 -6 17 -24v-49v-50q-1 -22 -14 -22q-18 0 -17 25q0 25 1 51q2 25 4 51q-20 -21 -29 -12q-12 8 -3 25q20 41 37 65q10 16 22 8zM174 117q15 0 13 -24q0 -34 3 -70q1 -20 14 -16q9 2 8 15
q-5 19 11 19q18 -1 18 -30q-1 -31 -31 -32q-43 5 -50 34q-5 30 1 78q1 26 13 26z" />
    <glyph glyph-name="uni513F" unicode="&#x513f;" 
d="M144 199q16 0 16 -37q-1 -5 -1 -15q-2 -70 2 -114q1 -22 22 -23q19 -1 17 18q-3 27 16 27q18 -3 20 -35q0 -40 -43 -41q-56 2 -62 48q-3 22 -4 56q0 34 2 79q1 37 15 37zM69 171q3 29 17 26q16 -3 14 -28q-5 -29 -14 -87q-9 -59 -13 -86q-4 -25 -21 -22q-15 4 -12 26
q17 104 29 171z" />
    <glyph glyph-name="uni514D" unicode="&#x514d;" 
d="M97 198q12 6 20 1q4 -5 5 -10q37 1 52 -3q30 -12 11 -38q15 -3 21 -6q21 -9 17 -28q-1 -2 -1 -5q-2 -11 -1 -16q3 -5 4 -12q0 -12 -30 -11q-15 0 -41 1q-15 0 -28 1q-33 -52 -64 -86q-14 -14 -24 -4q-11 9 4 24q24 30 51 69q-8 0 -18 2q-4 -11 -12 -13q-9 -1 -15 10
q-9 23 -5 54q2 13 20 4q4 6 20 10q27 4 58 8q7 6 12 10q2 2 1 4q-1 1 -4 2q-36 -2 -40 7q-23 -22 -48 -28q-17 -4 -19 1q-6 13 6 21q9 6 26 16q14 10 22 15zM144 69q12 3 12 -26q-2 -38 26 -35q22 -2 20 18q-2 21 13 22q18 -1 20 -26q1 -43 -40 -42q-72 0 -66 56
q-1 34 15 33zM185 123q-23 3 -49 2q8 -8 1 -26q20 0 31 -1h25q0 1 1 7q1 5 2 7q1 11 -11 11zM120 123q-1 -1 -3 -1q-13 -1 -29 -3q-2 -1 -3 -1q-8 -1 -15 -1q1 -5 2 -13q0 -3 1 -6q18 0 35 2q7 10 12 23z" />
    <glyph glyph-name="uni516C" unicode="&#x516c;" 
d="M106 92q13 18 23 14q11 -4 0 -25q-22 -41 -28 -52q-6 -9 -3 -12q2 -3 13 -2q44 4 61 8q0 3 -1 13v8q0 12 7 14q9 2 21 -10q12 -16 20 -45q3 -17 -7 -21q-8 -5 -18 2q-8 6 -13 15q-19 -3 -46 -7q-32 -5 -52 -7q-37 4 -20 35q22 39 43 72zM165 186q47 -45 71 -64
q17 -16 10 -27q-10 -11 -33 5q-37 29 -68 65q-17 20 -6 30q8 6 26 -9zM82 170q15 17 27 11q13 -9 -1 -30q-20 -32 -57 -64q-19 -19 -29 -7q-8 9 6 25q40 48 54 65z" />
    <glyph glyph-name="uni518C" unicode="&#x518c;" 
d="M186 200q28 1 32 -24q3 -15 5 -57q19 -4 23 -15q1 -10 -22 -13q2 -52 0 -90q-3 -24 -24 -25q-17 2 -31 15q-8 8 -4 15q2 6 16 5q15 -6 15 12v42v25q-14 0 -21 -1h-15q-1 -55 -5 -86q-4 -23 -17 -21q-13 1 -10 28q1 22 2 49q1 22 2 29h-9q1 0 -1 0q-1 -42 -3 -71v-12
q-2 -26 -22 -26q-20 1 -31 18q-4 7 -1 14q4 8 15 5q6 -4 9 -1q3 1 4 11q1 23 2 61q-5 0 -19 -1h-15q-3 -41 -10 -87q-5 -23 -19 -22q-14 3 -9 26q4 30 8 83q-21 2 -20 15q0 9 23 13q1 17 2 32q3 24 3 27q2 22 14 22q9 2 13 -11q6 10 23 11q31 -1 31 -24q-1 -1 3 -52
q0 -1 5 0q4 1 5 1q0 19 1 55q0 21 13 21q6 0 11 -7q9 10 28 11zM160 177v-16v-41h35q0 6 -1 18q0 14 -1 26q-2 12 -15 10q-14 -3 -18 3zM67 175q-1 -8 -1 -24q-1 -16 -2 -35q15 1 31 2v40q-1 14 -12 12q-11 0 -16 5z" />
    <glyph glyph-name="uni524D" unicode="&#x524d;" 
d="M107 133q31 1 33 -34q3 -27 3 -43q1 -17 -1 -43q-3 -36 -25 -36q-14 2 -23 10q-14 8 -8 18q7 8 19 3q9 -4 10 6q2 47 -3 86q-1 9 -9 10q-11 0 -18 -1q-11 -3 -21 2q0 -3 -1 -10q-1 -8 0 -10q10 2 24 4q16 1 21 -9q0 -11 -14 -14q-15 -3 -32 -4v-9q4 -1 11 -1q5 0 16 2
q20 1 23 -10q0 -11 -21 -13q-4 -1 -14 -1h-16q1 -17 -2 -36q-2 -19 -14 -18q-14 1 -14 19q2 58 10 111q3 15 11 17q7 -1 9 -5q8 8 46 9zM177 200q11 -8 5 -21q-4 -5 -5 -9h36q28 0 27 -14q-3 -12 -28 -14q-31 -1 -53 -1q-22 -1 -42 -1q18 0 -77 1q-21 1 -23 12q-2 12 23 13
h17q8 1 11 1q-7 5 -6 14q1 15 18 17q16 -2 19 -16q0 -7 -6 -14h49l12 22q9 18 23 10zM210 136q13 2 17 -30q2 -45 1 -93q-2 -29 -22 -31q-13 0 -25 8q-14 10 -9 20q3 10 20 6q7 -3 8 5q2 22 0 86q-2 27 10 29zM164 120q11 -1 16 -14q5 -30 1 -61q-3 -21 -13 -19
q-14 0 -15 18t-1 32q0 13 1 28q-1 15 11 16z" />
    <glyph glyph-name="uni5317" unicode="&#x5317;" 
d="M144 197q10 -2 15 -19q1 -18 2 -42q32 12 44 12q19 1 25 -10q-1 -13 -17 -20t-51 -6q-2 -48 2 -81q4 -24 22 -25q15 0 20 13q2 6 2 19q0 16 11 17q14 -1 19 -14q4 -18 0 -38q-7 -16 -26 -23q-23 -5 -48 1q-23 7 -30 30q-6 21 -4 101q0 40 5 69q2 16 9 16zM90 191
q12 -3 15 -16q2 -12 5 -52q0 -5 1 -7v-60v-60q-1 -21 -16 -21q-14 2 -16 20q-29 -5 -42 -4q-19 2 -19 9q1 12 16 16q7 1 20 2t24 2q-3 41 -1 86q-24 -5 -45 -2q-14 3 -14 16q3 11 18 14q18 -1 41 -2v21q1 15 2 21q3 16 11 17z" />
    <glyph glyph-name="uni533A" unicode="&#x533a;" 
d="M190 194q40 -2 33 -19q-1 -10 -40 -10q-35 -1 -63 -1q-30 0 -63 2q3 -13 3 -32q-4 -64 0 -98q-1 -32 25 -29q19 -1 47 0q28 0 63 3q40 5 39 -10q1 -15 -38 -20q-88 -3 -124 1q-44 1 -43 58q-2 44 1 70q2 41 12 58q-6 2 -6 10q-3 12 41 15q54 3 113 2zM181 147
q12 -7 3 -18q-13 -23 -24 -37q30 -26 49 -43q13 -14 4 -23q-8 -9 -26 5q-15 10 -45 38q-28 -33 -39 -43q-13 -13 -23 -4q-10 6 0 20q18 21 40 47q-17 16 -24 21q-5 4 -7 7q-13 11 -5 20q6 7 20 -2q15 -10 33 -25q2 2 8 10q7 10 15 20q12 14 21 7z" />
    <glyph glyph-name="uni53F7" unicode="&#x53f7;" 
d="M220 113q19 -1 22 -14q-2 -14 -22 -14q-65 -3 -125 -3q-3 -4 -6 -13q-1 -2 -1 -3q27 1 53 0t41 -3q33 -5 34 -35q-2 -18 -9 -32q-12 -19 -32 -22q-20 -1 -36 8q-11 8 -8 18q4 7 15 5q17 -4 28 1q8 6 10 21q-1 8 -11 11q-52 7 -103 -3q-20 -2 -19 19q3 13 11 26h-31
q-22 1 -23 13t23 14q42 3 84 4q40 2 105 2zM161 199q40 -4 47 -31q3 -15 0 -25q2 -4 3 -9q-2 -8 -19 -10q-76 -3 -122 0q-5 -8 -13 -8q-11 -1 -17 17q-5 18 -3 44q0 18 12 21q9 0 14 -12q6 5 25 9q37 5 73 4zM166 174q-38 1 -71 -3q-15 -3 -29 -1q0 -4 1 -11q2 -9 3 -13
q15 0 48 1q41 1 60 2v16q-1 6 -12 9z" />
    <glyph glyph-name="uni53F8" unicode="&#x53f8;" 
d="M139 111q40 -4 41 -39q0 -11 -1 -15q0 -5 -1 -8q9 -6 9 -13q1 -12 -26 -13q-62 -5 -89 -4q-3 -15 -14 -15q-18 -1 -21 29q-3 25 -1 54q1 19 10 18q7 1 13 -9q9 7 22 9q32 7 58 6zM184 201q41 1 46 -40q8 -58 2 -135q-7 -44 -35 -48q-18 -1 -31 16q-9 9 -2 19q6 5 17 1
q15 -7 18 12q5 27 5 53q1 24 -2 74q-1 16 -16 19q-15 1 -42 1q-27 -1 -55 -3q-47 -6 -43 12q-3 11 36 15q25 2 50 3t52 1zM161 150q20 -2 22 -14q0 -12 -22 -13q-24 0 -62 -1h-49q-27 -1 -30 14q-4 12 29 13q53 4 112 1zM136 85q-20 1 -45 -3q-19 -5 -29 -1q1 -6 3 -23
q2 -11 3 -16q15 2 33 3l45 3q4 11 3 25q-2 10 -13 12z" />
    <glyph glyph-name="uni540D" unicode="&#x540d;" 
d="M109 202q8 4 14 -2q5 -7 1 -15q39 10 81 5q14 -3 17 -12q2 -9 -8 -20q-31 -36 -114 -86q0 -1 1 -1l3 -3l12 3q12 3 17 5q25 3 42 3q16 0 30 -2q27 -6 25 -35q0 -8 -2 -17q-1 -8 -3 -20q7 -5 7 -12q-1 -8 -10 -9q-58 -3 -105 2q-3 -9 -14 -12q-14 -1 -18 22q-1 3 -1 6
q-3 22 -2 35q1 16 -1 23q-18 -12 -33 -18q-16 -8 -23 3q-9 12 9 23q43 25 68 42q-19 1 -20 19q0 16 19 18q23 -2 19 -26q42 26 55 41q2 2 1 4q-1 1 -3 2q-11 0 -25 -3q-29 -4 -31 10q-23 -28 -46 -38q-16 -6 -21 3q-6 9 7 21q24 23 52 41zM186 53q-14 2 -49 -3
q-17 -5 -27 -1q5 -27 6 -42q30 1 45 1h33q7 13 7 31q1 12 -15 14z" />
    <glyph glyph-name="uni54A8" unicode="&#x54a8;" 
d="M169 154q10 -4 2 -24q-10 -22 -35 -59q20 3 46 -1q29 -5 31 -33q0 -18 -4 -34q6 -3 7 -10q1 -11 -22 -12q-25 -1 -59 -1q-36 1 -60 2q-6 -11 -15 -11q-11 2 -15 17q-6 30 -3 59q1 17 13 19q6 0 12 -10q13 5 42 11q-3 12 8 28q10 18 30 45q11 19 22 14zM147 203
q11 -4 6 -20q17 3 36 2q38 -4 40 -28q-3 -35 -22 -41q-19 3 -10 28q6 15 -10 15h-25q-12 0 -22 -1q-9 -14 -16 -21q-12 -12 -22 -6q-11 6 -2 24q9 17 25 38q11 14 22 10zM163 45q-16 -1 -32 -1q-16 -1 -28 -2q-18 -3 -32 -4l3 -24q0 -7 1 -9q58 1 104 2q4 11 5 21
q0 17 -21 17zM82 125q14 5 21 -4q5 -10 -9 -19q-27 -18 -55 -27q-20 -5 -22 5q-5 11 11 21q30 15 54 24zM168 110q3 7 17 4q26 -8 50 -22q12 -9 7 -21q-5 -8 -24 -2q-22 9 -43 24q-12 10 -7 17zM56 189q21 -2 23 -24q-2 -22 -23 -23q-21 1 -22 23q1 22 22 24z" />
    <glyph glyph-name="uni56FD" unicode="&#x56fd;" 
d="M171 197q31 -2 43 -14q12 -16 13 -40v-62q-1 -36 -2 -75q6 -5 6 -11q-4 -11 -24 -12h-68h-79q-4 -8 -12 -9q-15 3 -18 29q-4 42 -5 84q-1 41 1 81q1 20 11 21q9 -1 12 -10q11 8 32 13q11 2 40 3q37 2 50 2zM167 170q-13 -1 -33 -2q-21 -1 -40 -2q-31 -5 -42 2
q1 -33 3 -67q2 -63 5 -96q20 0 64 2q40 1 71 3q2 40 3 75q0 35 -2 63q-3 21 -29 22zM139 78v-26h15q-5 4 -4 11q1 10 13 12q11 -1 13 -14q-1 -5 -4 -10q2 0 6 -2h2q11 -3 12 -12q-2 -12 -17 -12h-94q-15 1 -17 13q-1 10 13 12h16q13 0 19 1v27q-15 0 -28 2q-14 2 -15 13
q0 7 16 10q13 1 28 2v13q1 5 1 7q-18 -1 -27 1q-14 0 -15 11q0 9 18 13q22 1 40 2q18 0 30 -1q18 -3 22 -14q-2 -9 -12 -11q-5 -2 -34 -1q1 -6 1 -18q19 0 27 -1q12 -3 16 -10q-1 -12 -14 -15q-9 -2 -18 -3h-9z" />
    <glyph glyph-name="uni56FE" unicode="&#x56fe;" 
d="M168 193q64 2 65 -65v-65q0 -36 -1 -57q1 -3 1 -2q4 -4 3 -6q1 -13 -34 -13q-17 1 -38 1q-38 1 -68 2q-5 1 -9 1q-18 1 -25 3q-4 -18 -17 -19q-15 2 -15 28q0 90 4 158q1 24 12 24q6 1 12 -8q22 17 110 18zM179 165h-16q-8 1 -25 1q0 -8 -3 -12q19 2 33 1q19 -5 9 -22
q-11 -14 -21 -23q3 -2 7 -3q13 -5 19 -7q20 -10 14 -21q-5 -11 -24 -2q-11 4 -37 14q-17 -17 -45 -35q-15 -7 -22 1q-8 10 5 20q4 2 12 8q15 10 24 17q-17 5 -12 15q-16 -6 -20 2q-8 8 6 20q5 5 16 15q8 7 13 11q-17 -2 -28 -3q-17 -3 -24 3q1 -27 1 -62v-97q13 4 31 5h57
h53q1 44 0 75q0 32 -2 55q-1 23 -21 24zM108 50q34 -4 48 -8q27 -6 20 -19q-2 -10 -23 -6q-19 2 -47 10q-17 5 -13 17q0 5 15 6zM141 83q15 -2 16 -19q-3 -14 -15 -16q-17 2 -19 18q1 15 18 17zM143 136q-10 0 -14 -1h-9q-8 -8 -12 -11q7 -3 20 -6q8 6 16 14q2 3 -1 4z" />
    <glyph glyph-name="uni5BA2" unicode="&#x5ba2;" 
d="M95 149q19 10 24 -9q39 9 57 3q21 -9 9 -26q-12 -14 -23 -21q11 -5 28 -11q31 -11 46 -16q18 -7 13 -22q-7 -12 -30 -3q-6 2 -17 6q-46 16 -67 26q-11 -6 -21 -12q-12 -7 -18 -10q9 1 18 3q18 1 32 1q15 0 27 -1q28 -5 31 -34q0 -12 -1 -18q9 -3 9 -8q1 -10 -23 -13
q-50 -3 -97 1q-6 -13 -14 -11q-14 2 -16 22q-2 18 -1 39q-15 -8 -29 -11q-14 -4 -19 5q-6 12 12 21q46 21 79 40q-18 8 -13 19q3 9 21 4q10 -3 20 -7q2 1 5 3q6 5 10 7q2 2 1 4q0 2 -3 3h-21q-11 -1 -12 6q-14 -14 -41 -28q-16 -8 -23 2q-5 10 7 19q22 16 40 27zM147 184
q18 0 26 -1q10 0 19 -1q43 -5 41 -37q-3 -24 -20 -22q-15 1 -12 21q2 11 -9 12q-46 6 -99 1q-24 -3 -32 2q-2 -12 -6 -18q-7 -12 -19 -11q-10 3 -10 21q1 15 8 26q13 11 25 -3q16 5 48 7q-5 23 18 25q21 -2 22 -22zM90 35q0 -5 1 -15t2 -14q31 2 45 2q18 1 33 1q2 7 3 16
t-13 9h-30t-24 -1q-12 -3 -17 2z" />
    <glyph glyph-name="uni5E94" unicode="&#x5e94;" 
d="M121 203q25 -4 22 -25h23q10 1 34 1q20 -3 22 -13q1 -15 -25 -14q-44 -3 -82 -3q-35 -1 -52 1q-6 -73 -16 -143q-3 -25 -19 -23q-13 2 -10 26q5 43 14 116q4 28 6 40q1 18 14 19q10 -2 12 -15q15 4 40 6q-6 24 17 27zM203 123q11 -5 8 -23q-6 -33 -25 -84h30
q22 -2 21 -15q-1 -10 -18 -11h-57h-34q-15 -1 -48 -1q-19 2 -21 11q-3 10 20 13q10 1 29 1h20q11 1 28 1q11 35 29 94q4 19 18 14zM90 96q17 -1 22 -20q-2 -22 -20 -22q-19 1 -20 19q1 20 18 23zM144 123q17 -3 20 -22q-3 -17 -19 -20q-19 1 -20 22q1 18 19 20z" />
    <glyph glyph-name="uni5F55" unicode="&#x5f55;" 
d="M46 119h117v3q1 9 2 17q-5 -3 -29 -4q-19 -1 -52 -1q-11 1 -14 1q-17 1 -18 9q-1 12 16 13q47 2 67 2q26 -2 30 -4v3v7q-1 4 -5 5q-21 1 -38 1q-19 -1 -46 -3q-24 -2 -25 10q-1 11 24 15q58 6 93 1q23 -7 26 -29q2 -25 -2 -48h32q20 0 21 -13q0 -12 -19 -13
q-18 -1 -41 -1q-24 0 -36 1q1 -9 2 -39q0 -33 -1 -47q-1 -21 -7 -25q-8 -7 -18 -6q-17 2 -26 15q-7 10 -2 16q4 5 19 1q5 -1 6 6q1 15 1 38q0 22 -2 43q-32 -2 -74 1q-31 1 -29 13q0 11 28 12zM95 45q16 4 20 -5q6 -11 -9 -19q-25 -15 -59 -22q-16 -2 -21 6q-7 11 16 20
q36 15 53 20zM174 41q24 -9 48 -23q17 -11 11 -20q-6 -11 -23 -4q-28 11 -45 23q-19 10 -12 21q4 9 21 3zM190 88q21 -2 20 -17q-2 -21 -19 -19q-16 0 -21 16q-3 19 20 20zM69 86q19 -4 20 -18q-1 -22 -19 -20q-18 1 -19 19q0 18 18 19z" />
    <glyph glyph-name="uni6211" unicode="&#x6211;" 
d="M143 197q14 2 19 -22q1 -8 3 -15q2 -11 4 -15q13 1 32 1q24 0 26 -11q4 -10 -21 -15q-7 -2 -31 -4q0 -7 4 -20q1 -5 2 -6q20 21 27 15q9 -6 0 -22q-6 -9 -18 -26q4 -14 11 -34q2 -5 3 -5t3 6q2 12 12 12q15 -1 15 -17q1 -16 -5 -31q-4 -14 -17 -14q-18 0 -30 26
q-7 9 -13 28v3q-14 -15 -26 -25q-22 -16 -31 -6q-10 5 9 26q4 4 18 19q13 13 19 20q-2 7 -7 23q-5 18 -6 26q-8 -1 -24 -2q-17 -2 -24 -2q1 -15 2 -28q18 2 24 -6q3 -9 -7 -15q-6 -5 -17 -8v-29q0 -13 -1 -22q-4 -20 -21 -23q-15 -1 -35 12q-12 8 -6 16q6 6 19 2q12 -6 14 6
v18q1 10 1 12q-14 -5 -26 -6q-26 -2 -26 13q1 10 24 17l16 4q8 2 13 4q0 4 -1 15v17q-4 -2 -34 -1q-20 -1 -21 11q1 11 23 14q2 0 10 1q12 1 21 3q-2 17 3 23q-20 0 -24 1q-19 2 -19 13q0 10 23 13q17 1 28 3q8 1 12 2q21 1 24 -13q1 -12 -15 -14q-2 -1 -9 -2q-7 -2 -8 -2
q7 -6 10 -22q11 -1 46 4q-1 2 -4 16q-2 10 -2 15q-5 21 9 23zM196 191q18 0 24 -17q0 -22 -18 -24q-20 1 -23 18q-1 19 17 23z" />
    <glyph glyph-name="uni6237" unicode="&#x6237;" 
d="M146 202q14 -3 17 -16q-1 -10 -6 -14q30 0 37 -2q8 -2 21 -10q17 -16 12 -54q6 -5 5 -11q-1 -13 -28 -13h-42h-38q-13 -1 -24 -1q-10 0 -20 1q-2 -20 -11 -72v-6q-5 -33 -22 -29q-18 0 -9 36q13 81 20 140q2 28 16 23q6 -1 12 -9q20 3 44 5q-6 4 -5 13q1 17 21 19z
M112 142q-3 -1 -8 -1q-8 -1 -18 -1q-1 -6 -2 -17q-1 -12 -1 -17q19 0 38 1q56 4 78 4q8 35 -22 34q-17 -1 -36 -1q-18 -1 -29 -2z" />
    <glyph glyph-name="uni6545" unicode="&#x6545;" 
d="M72 202q13 -2 19 -14q2 -10 1 -23h15h8q12 -1 15 -10q4 10 10 23l4 8q11 16 22 15q10 -4 8 -19q0 -3 -2 -8q-2 -4 -2 -6q7 0 24 1q10 1 13 1q27 2 28 -14q3 -15 -24 -16q-15 -1 -32 -1q-16 1 -20 3q-1 -3 -4 -8l-1 -2q-10 -11 -20 -6t-6 18l-2 -2q-6 -3 -11 -3
q-8 -2 -24 -2q0 -12 -1 -22v-16q14 0 22 -4q12 -10 12 -31q-2 -24 -7 -43q4 -7 5 -14q-2 -10 -23 -10q-9 1 -43 -2q-1 -15 -13 -15q-17 -1 -18 29q-3 26 -4 38q0 14 1 26q-1 24 9 24q8 0 14 -12q4 7 17 11q0 7 -1 20t0 21q-16 0 -25 1q-17 3 -15 14q-3 9 16 11q10 1 26 2v10
q1 7 1 10q1 17 8 17zM187 119q6 17 18 13q12 -6 5 -28q-2 -7 -12 -31q-4 -9 -6 -14q7 -10 34 -49q6 -9 8 -10q9 -12 0 -20q-13 -9 -27 7q-18 20 -31 41q-2 -2 -5 -8q-14 -20 -17 -24q-20 -27 -33 -16q-10 11 5 28q17 22 32 49q-2 2 -10 16q-8 15 -10 20q-11 18 -1 24
q10 9 23 -9q7 -9 14 -20q1 2 2 5q9 20 11 26zM47 73q3 -17 7 -54h18q11 1 17 2q2 5 5 22q2 6 3 10q3 17 -13 18q-12 1 -18 -1q-13 -4 -19 3z" />
    <glyph glyph-name="uni6559" unicode="&#x6559;" 
d="M80 118h-36q-21 -1 -21 11q0 11 15 13q5 0 15 1q10 0 16 1v15q-3 0 -6 -1q-7 0 -10 1q-21 0 -22 16q0 11 19 12h21q-1 17 10 17q8 1 17 -16h5h7q16 -1 19 -12q0 -11 -14 -13q-3 -1 -8 -1q-5 -1 -7 -1v-12v-5h2q16 15 24 12q9 -4 8 -15q-1 -1 1 -2l1 -1q4 26 15 49
q7 18 17 16q12 -4 12 -19q-2 -8 -4 -19q10 1 20 1q9 1 33 1q19 -1 21 -13q-1 -15 -31 -15q-13 -1 -25 0q-11 1 -24 3q-2 -8 -9 -16q-5 -6 -13 -5q-5 0 -10 6q-2 -10 -22 -8q-5 -7 -12 -14q28 -3 19 -27q-1 -3 -1 -2q-5 -12 -8 -17q20 1 22 -10q0 -7 -11 -13l-12 -6v-24
q0 -13 -8 -24q-7 -7 -14 -9q-8 0 -18 4q-29 13 -16 26q5 6 19 2q8 -3 11 6q-1 2 0 5t1 6q-15 -5 -32 -8q-22 -3 -27 11q-3 11 20 16q4 0 18 4q8 2 19 5q0 1 -1 3t0 4q-1 6 1 10q1 3 5 8q1 3 0 4q0 2 -3 2h-6q-16 -16 -28 -26q-18 -16 -27 -3q-8 8 5 21l9 9q-11 2 -10 13
q1 9 19 10h16q6 7 14 13zM193 126q3 12 16 9q12 -3 8 -23q-9 -27 -21 -56q13 -22 39 -52q15 -18 2 -25q-11 -6 -25 8q-19 18 -30 37q-11 -23 -20 -36q-10 -18 -25 -13q-13 6 -3 25q12 18 29 52q-3 4 -10 15q-9 16 -12 23q-8 17 1 24q10 5 19 -6q1 -3 4 -6l12 -18
q12 29 16 42z" />
    <glyph glyph-name="uni65F6" unicode="&#x65f6;" 
d="M78 183q28 3 33 -18q2 -28 3 -55q0 -26 -1 -67q8 -6 9 -14q2 -15 -21 -15q-7 -1 -22 -2h-27q-2 -16 -15 -13q-13 1 -13 24q-2 25 -2 57q0 16 1 34q0 17 1 41q0 23 11 23q8 -1 11 -5q15 8 32 10zM200 201q11 1 15 -17q0 -4 1 -12q1 -14 2 -15q4 -1 9 -2q9 -5 9 -12
q1 -6 -6 -9q-6 -3 -11 -4q3 -59 3 -114q-3 -42 -26 -39q-21 0 -34 13q-8 9 -4 14q6 9 19 4q13 -7 14 18v38q-1 39 -1 64q-2 0 -10 -1q-18 -1 -37 0q-26 0 -27 16q-1 13 28 14h45v27q0 16 11 17zM87 97q-12 -4 -29 -5h-5q0 -38 -1 -57q16 4 35 7v55zM152 106q19 -1 23 -20
q-4 -21 -22 -20q-17 1 -19 20t18 20zM68 155q-8 -3 -17 -3v-16q1 -14 1 -20q25 4 34 -3q0 14 -1 19v12q0 15 -17 11z" />
    <glyph glyph-name="uni662F" unicode="&#x662f;" 
d="M56 105q36 2 79 2q44 1 75 1q34 -2 33 -13q0 -11 -32 -12h-54q1 -6 1 -17h18q14 1 23 1q24 1 25 -13q0 -13 -22 -13h-26q-13 1 -18 2q0 -1 -1 -4v-27q18 -5 42 -10q11 -2 19 -2q27 -4 23 -17q-4 -16 -34 -10q-79 17 -135 35l-9 -9q-8 -9 -10 -12q-18 -20 -30 -10
q-8 10 7 27q30 42 37 54q14 26 27 18q9 -6 2 -25q-4 -9 -12 -23q28 -9 42 -10q1 20 2 64h-68q-39 -2 -36 11q-6 12 32 12zM193 190q6 -11 3 -39v-15q4 -1 5 -8q2 -12 -22 -12q-35 -3 -81 0q-7 -5 -11 -5q-12 3 -16 29l-1 3q-1 30 2 49q0 18 11 17q7 2 15 -8q16 5 47 8
q37 2 48 -19zM126 185q-11 -3 -24 -2q1 -5 1 -17q4 0 19 1q10 0 21 1q23 0 25 -5q2 19 -11 22q-14 3 -31 0zM168 153q-5 -6 -23 -6q-27 -1 -42 1q0 -10 -1 -13q11 -1 32 0t33 1q1 5 1 17z" />
    <glyph glyph-name="uni667A" unicode="&#x667a;" 
d="M104 109q18 -1 19 -14q-1 -12 -5 -15q15 1 54 1q28 -1 41 -12q12 -8 11 -34q0 -7 -3 -22v-6q4 -6 4 -10q0 -11 -19 -13h-54t-68 1q-5 -11 -15 -11q-13 1 -14 21q-2 14 -2 36q1 20 4 34q2 16 11 14q6 0 10 -5q3 1 18 3q-9 5 -8 16q1 14 16 16zM146 189q7 -2 11 -11
q14 6 41 6q18 1 28 -9q9 -10 11 -21q-1 -23 -5 -36q7 -6 7 -14q-2 -10 -26 -10h-51q-5 -9 -13 -7q-13 -1 -14 19q-3 24 -1 63q-1 19 12 20zM92 137h26q14 0 15 -10q-1 -11 -15 -12q-20 -4 -37 -5q-19 -30 -36 -50q-12 -13 -21 -4q-8 6 -2 18q9 16 22 34h-19q-13 -1 -12 11
q1 9 14 12q32 5 36 6q6 8 12 18q-10 -1 -18 1q-9 -11 -14 -15q-11 -7 -17 0q-6 6 -1 14q10 24 32 44q5 6 16 1q5 -6 3 -11q-2 -3 -2 -4l-3 -6h18h20q15 -2 15 -12q0 -9 -9 -10q-12 -3 -18 -2q-2 -9 -5 -18zM83 57q0 -3 1 -6q0 -4 1 -6q40 4 85 1q12 -3 15 -9q-2 -8 -16 -10
q-34 -3 -83 -2v-19q35 1 81 3q14 0 26 1q1 6 2 19q0 5 1 11q-1 19 -23 20q-35 2 -90 -3zM194 161q-8 0 -26 -3h-6q2 -15 2 -39q23 1 40 2v6q3 14 3 21q1 13 -13 13z" />
    <glyph glyph-name="uni6709" unicode="&#x6709;" 
d="M118 199q10 0 13 -14h35q17 1 46 1q23 -1 25 -16q1 -11 -19 -12q-20 -2 -42 -3q-19 -1 -61 0q-3 -3 -10 -14q-8 -11 -10 -13q12 -2 10 -31h5q17 1 36 2q18 -1 20 -11q0 -12 -19 -13q-23 -2 -43 -2v-18q7 0 14 1q22 2 32 2q23 -1 27 -15q-1 -12 -24 -13h-50q0 -12 -2 -29
q-2 -25 -16 -24q-17 1 -14 36q1 44 8 92q-4 -4 -11 -13q-9 -11 -22 -24q-16 -14 -26 -4t3 25q9 11 26 32q15 19 28 35h-9q-4 1 -11 1q-25 0 -23 15q-2 10 22 10h3q21 1 40 2q9 18 19 15zM142 143q22 3 38 0q19 -6 26 -33q3 -18 4 -42t0 -49q-3 -43 -30 -43q-18 0 -29 12
q-9 11 -4 17q6 7 20 3q10 -4 12 8q5 56 -6 90q-7 15 -27 12q-32 -7 -34 6q-6 11 30 19z" />
    <glyph glyph-name="uni672C" unicode="&#x672c;" 
d="M113 117v20q-10 0 -36 -1t-35 0q-21 0 -21 14q1 10 19 15q12 1 30 2q19 1 42 2q-1 2 0 8t1 9q1 14 11 15q10 -1 15 -15l2 -18q25 0 39 -1h29q26 -4 28 -15q-1 -13 -19 -15h-77q1 -66 3 -89q3 -1 12 -2h13q16 -5 17 -16q-2 -10 -18 -14q-14 -2 -22 -2q0 -8 -1 -17
q-3 -15 -16 -17q-15 1 -17 19q-2 4 -1 18q-10 0 -20 2q-12 3 -13 13q1 10 12 13q3 0 22 3q-1 40 1 56q-31 -55 -64 -94q-14 -11 -27 -6q-8 7 1 21q13 19 26 37q18 24 39 54q7 10 17 8q6 -2 8 -7zM151 129q10 2 20 -7q23 -25 71 -84q8 -13 1 -23q-11 -7 -24 7q-39 38 -69 86
q-5 13 1 21z" />
    <glyph glyph-name="uni6770" unicode="&#x6770;" 
d="M117 135v13q-10 0 -33 1q-21 0 -32 1q-24 1 -22 14q-2 12 32 13h55q0 23 13 24q13 0 15 -24q19 0 54 -2h10q19 -2 20 -15q0 -11 -24 -12q-17 -2 -58 -1q0 -20 -1 -30v-21v-32q1 -24 -17 -23q-15 1 -14 28q0 8 1 27q0 12 1 27q-35 -42 -61 -62q-20 -15 -28 -3q-8 10 6 22
q7 7 15 14q26 24 39 38q10 12 18 10q6 0 11 -7zM175 131q10 -6 46 -29q5 -4 11 -7q18 -13 11 -24q-7 -12 -29 0q-27 14 -55 40q-13 12 -4 21q7 7 20 -1zM65 36q8 -7 5 -26q-3 -9 -12 -22q-13 -17 -26 -7q-12 11 -3 23q1 1 2 3q7 12 13 19q9 14 21 10zM218 32q11 -10 19 -26
q9 -14 -3 -22q-12 -6 -24 9q-11 12 -15 26q-6 14 3 19q10 4 20 -6zM109 32q17 -3 19 -20q-1 -16 -16 -18q-18 1 -20 18q2 19 17 20zM162 29q17 -2 21 -20q-2 -10 -17 -12q-17 2 -19 16q0 15 15 16z" />
    <glyph glyph-name="uni6CE8" unicode="&#x6ce8;" 
d="M158 203q22 -1 24 -22q0 -9 -7 -17h32q22 -3 23 -13q0 -12 -23 -15q-19 -2 -35 -1q2 -12 3 -21t1 -17q18 0 25 -1q17 -2 18 -12q-1 -13 -18 -14q-2 -1 -3 -1q-11 -1 -21 -1v-57h44q22 -2 24 -11q-1 -13 -23 -16q-58 -3 -128 0q-22 2 -22 12q-1 10 22 12q30 1 50 2
q-1 28 1 57q-12 0 -33 2q-19 1 -19 13q0 8 18 12q5 0 17 1q12 0 18 1v2q1 25 4 36q-21 -1 -46 1q-23 0 -23 13q-1 9 23 12q36 2 42 3q-9 5 -9 19q1 19 21 21zM68 68q13 -2 9 -21q-9 -28 -20 -49q-11 -22 -25 -19q-14 5 -5 26q1 3 3 7q10 25 17 39q9 20 21 17zM40 130
q18 -2 20 -21q-2 -21 -20 -22q-20 1 -21 22q1 19 21 21zM59 194q19 -2 21 -20q-2 -21 -19 -22q-21 1 -22 21q1 19 20 21z" />
    <glyph glyph-name="uni70B9" unicode="&#x70b9;" 
d="M110 200q8 0 17 -19q37 3 66 5q30 1 32 -15q3 -16 -30 -15h-64v-12q14 -1 35 -2q46 -3 46 -35q0 -7 -1 -19q-1 -8 0 -9q9 -8 9 -13q0 -11 -23 -12q-19 -1 -47 -1q-13 1 -18 1q-22 1 -48 -2q0 -13 -10 -17q-14 -4 -21 17q-10 41 -14 71q-2 18 8 20q8 3 18 -11q13 8 34 10
q-1 29 1 40q0 17 10 18zM95 114q-12 -3 -24 -1q6 -17 9 -35q12 0 23 1q50 3 75 4q11 36 -24 34q-31 2 -59 -3zM204 28q15 7 31 -14q17 -23 4 -35q-16 -6 -31 18q-16 24 -4 31zM59 24q12 -10 4 -33q-11 -21 -29 -14q-15 11 -3 30q14 25 28 17zM161 25q17 -2 21 -17
q-2 -16 -20 -18q-17 1 -18 16q-1 19 17 19zM110 22q18 -1 20 -17q-3 -16 -18 -19q-20 1 -19 18t17 18z" />
    <glyph glyph-name="uni7279" unicode="&#x7279;" 
d="M177 207q13 1 16 -25h24q19 -2 20 -12q0 -13 -17 -14q-13 -2 -25 -1v-20q13 0 21 -1h17q16 -3 18 -12q4 -15 -40 -16v-2q5 -15 6 -27q27 -1 26 -14t-25 -13q1 -15 1 -47q0 -30 -23 -30q-15 1 -27 7q-12 9 -12 18q0 15 22 7q8 -4 10 4v14q1 7 1 26q-13 -1 -25 -1
q-13 0 -25 1q-27 -1 -26 14q-2 11 26 12h2q23 1 47 2q-1 13 1 28q-10 -1 -35 -1q-11 1 -15 1q-32 0 -28 13q-1 10 18 12q16 3 35 3v21q-16 0 -29 2q-16 1 -15 13q0 9 17 11h11q5 1 16 1q0 28 12 26zM85 202q11 -1 12 -14q1 -10 1 -22q19 -1 21 -12q0 -12 -22 -14v-34
q25 3 24 -9q2 -10 -25 -19q-1 -32 -2 -76v-2q-1 -26 -16 -26q-16 2 -15 25q-1 18 1 50q0 11 1 18q-19 -7 -31 -7q-16 0 -16 11q-8 13 48 28q0 8 1 18t2 22q-8 -2 -14 -1q-2 -4 -4 -10q-2 -7 -3 -9q-5 -17 -14 -15q-11 -1 -10 15q1 21 13 57q6 16 14 15q10 1 10 -13
q0 -10 -2 -15q7 1 12 1l2 22q3 16 12 16zM142 45q19 -1 20 -18q-1 -21 -19 -21q-19 0 -19 19t18 20z" />
    <glyph glyph-name="uni72EC" unicode="&#x72ec;" 
d="M167 203q13 0 15 -13q1 -5 1 -10q1 -5 1 -12q45 2 51 -25q3 -12 -6 -54q10 -20 -6 -22q-12 -3 -36 -4v-37h8q5 1 7 1q-2 29 12 28q10 1 19 -13q9 -18 11 -39q-1 -18 -16 -20q-14 0 -22 18q-47 -8 -81 -10q-24 2 -24 12q-2 12 13 14q25 6 41 6v39h-19q-13 -13 -21 4
q-15 38 -15 82q-1 18 12 19q8 -1 14 -13q12 7 30 10v13q1 8 1 12q2 14 10 14zM87 197q13 -2 14 -13q0 -9 -23 -41q26 -46 21 -117q-7 -46 -37 -47q-27 2 -28 20q1 12 16 12q12 -5 17 11q6 18 4 52q-32 -45 -44 -42q-11 1 -12 12q-1 6 9 17q4 4 14 16q7 8 11 12q9 12 18 7
l-8 22q-22 -24 -33 -23q-13 0 -13 13q0 8 8 16q12 12 22 24q-12 16 -18 21q-8 16 8 18q12 -3 27 -18q10 14 12 18q7 10 15 10zM156 138q-13 -3 -25 -1q1 -11 3 -23q2 -16 4 -30h4q9 2 13 2q-1 25 1 52zM185 142v-27q1 -18 2 -26h8q4 1 7 1q6 24 5 37q0 19 -22 15z" />
    <glyph glyph-name="uni745E" unicode="&#x745e;" 
d="M45 182h14q7 1 22 1q20 -2 22 -15q2 -14 -36 -14q4 -13 4 -32q22 -3 22 -15t-22 -13q-1 -37 1 -54q14 1 22 -3v10q1 14 3 21q1 9 7 11q5 1 12 -5q8 4 17 7q1 2 2 7q1 4 3 7q-34 -1 -33 14q-1 8 19 11q18 1 41 2h48q17 -2 19 -12q0 -11 -17 -13q-23 -2 -51 -1l-6 -12h5
q21 2 33 1q32 -2 35 -30q3 -22 0 -52q-3 -21 -23 -24q-9 0 -24 9q-9 6 -8 11q3 12 18 5q6 -4 7 3q4 24 2 44q0 11 -18 10q0 -7 1 -19q0 -13 1 -19q-1 -12 -11 -12q-12 0 -12 13l2 36q-6 1 -10 1q1 -12 2 -25q0 -13 1 -23q0 -14 -9 -13q-15 -1 -15 14q-1 27 1 45q-9 -2 -16 1
q2 -16 4 -56q0 -4 1 -7q-1 -19 -14 -20q-16 -5 -17 45q-4 -8 -57 -18q-24 -4 -27 11q0 8 11 12q10 4 21 7q-1 16 1 56q0 2 1 4q-26 0 -26 15q-1 11 27 13q1 25 6 32q-32 0 -32 13q-2 12 26 15zM170 201q12 0 13 -15q-1 -17 2 -27q9 -1 15 1q-2 27 12 27q10 0 15 -14
q4 -15 2 -34q-3 -12 -13 -13q-8 0 -13 10q-36 -5 -70 -3q-29 -4 -25 26q-1 33 17 32q10 1 10 -17q-2 -21 9 -18h5q4 1 7 1q-1 6 -1 19q1 6 1 9q1 16 14 16z" />
    <glyph glyph-name="uni7528" unicode="&#x7528;" 
d="M148 108v-28h14q7 1 11 1q19 -1 20 -13q0 -11 -13 -13t-32 -3v-42q-1 -21 -14 -22q-20 0 -19 23v14v24q-11 -1 -25 -1t-28 1q-4 -33 -9 -50q-5 -26 -19 -23q-17 -2 -11 30q3 36 9 82q1 8 5 46q2 17 4 37q1 20 13 20q6 -1 12 -7q58 15 104 15q51 1 57 -36q5 -21 6 -70
q0 -52 -4 -85q-6 -30 -27 -33q-12 0 -29 8q-18 13 -11 20q7 8 18 5q13 -4 17 9q10 57 2 134q-1 16 -21 20q-18 3 -39 -1q5 -10 7 -33q7 0 12 -1h9q20 -3 19 -14q1 -11 -18 -12q-1 -1 -3 -1q-7 -1 -17 -1zM69 162q-1 -17 -2 -33q16 2 26 3q12 2 24 3q-1 13 3 33
q-27 -2 -51 -6zM117 107h-51l-2 -32q25 3 53 3v29z" />
    <glyph glyph-name="uni767B" unicode="&#x767b;" 
d="M136 199q12 5 23 -5q56 -59 72 -71q23 -21 11 -31q-12 -9 -29 9q-18 15 -29 27q-1 -17 -23 -14q-30 0 -47 -1q-11 -1 -17 1q-6 1 -8 4q-2 -4 -7 -9l-5 -5q10 -2 15 -11q11 14 60 13q63 3 53 -49q6 -10 -1 -17q-4 -6 -25 -6q13 -6 7 -26q2 0 6 -1q9 0 14 1q28 -1 28 -13
q-1 -13 -28 -15q-36 -1 -75 -1h-77q-27 0 -26 13q-4 9 25 11q4 1 15 1q-5 18 12 19q15 -1 20 -16h26q16 1 24 1q4 5 6 11q2 10 10 15q-29 -1 -37 1h-23h-11q-3 -8 -16 -10q-10 1 -13 17q-5 18 -2 50q-4 -4 -9 -8q-6 -4 -9 -7q-14 -12 -24 -5q-10 8 7 27l29 29q-21 -1 -23 19
q1 13 18 15q16 -1 17 -20q2 2 7 8t7 8q3 9 -7 10q-35 -4 -38 14q-3 17 43 17q30 0 38 -10t-4 -32q-2 -5 -12 -21q20 2 37 3q16 0 34 -2q-9 10 -16 18q-14 15 -20 23q-11 16 -3 21zM161 83q-9 -1 -18 -1q-8 -1 -15 -2q-20 -4 -33 1l2 -22q13 1 31 1q15 1 46 1q5 23 -13 22z
M224 179q13 -2 16 -16q1 -19 -15 -20q-17 1 -19 18q2 15 18 18zM193 204q16 -4 17 -17q-1 -16 -16 -15q-18 3 -18 18q3 14 17 14z" />
    <glyph glyph-name="uni7684" unicode="&#x7684;" 
d="M164 198q10 -6 10 -21q0 -9 -4 -21v-1q6 2 17 2q37 2 43 -26q7 -52 -12 -128q-11 -28 -33 -29q-23 1 -30 18q-5 8 -1 15q4 6 19 3q10 -5 15 7q16 46 14 97q-2 18 -20 19q-9 0 -17 6q-7 -22 -20 -20q-6 1 -10 5q-1 -19 -2 -49q-1 -31 -3 -59q6 -3 6 -12q0 -7 -27 -10h-8
q-31 -2 -47 -2q-2 -17 -15 -16q-15 -2 -14 30q-2 42 -2 71q0 28 1 58q-1 18 12 20q7 -1 13 -13q3 5 14 12q-11 5 -10 20q3 19 22 23q16 -2 20 -17q0 -14 -6 -21q24 0 30 -6q9 -3 14 -18q-1 24 12 50q7 17 19 13zM85 132q-23 -4 -33 -1q3 -16 3 -35q14 1 26 2q19 -1 21 -11
q0 -13 -19 -15q-8 -1 -27 -3q-2 -27 -1 -53h10q22 3 35 3q8 71 7 96q0 21 -22 17zM161 105q18 -3 19 -20q-3 -21 -19 -22q-18 2 -20 23q2 18 20 19z" />
    <glyph glyph-name="uni76CA" unicode="&#x76ca;" 
d="M205 69q9 -9 10 -35q0 -18 -1 -28q4 -1 10 -2t11 -1q9 -3 9 -9q1 -11 -25 -14q-36 -1 -103 -1q-60 1 -81 2q-20 2 -21 14q1 7 11 9h8q5 1 9 2q0 39 3 61q3 12 11 12q5 0 11 -5q9 5 23 7q23 2 41 2q18 1 33 0q27 -2 41 -14zM171 200q6 -5 6 -14q-2 -9 -6 -20h16h14
q26 -1 27 -14q-2 -15 -24 -14q-23 -1 -48 -1q-24 -1 -44 -2q-38 -2 -79 -1q-23 0 -23 12q-1 11 14 14q16 2 40 4q-10 9 -9 19q3 17 20 20q18 0 22 -21q1 -9 -10 -18h10q25 2 41 2q0 1 2 6q3 7 12 24q7 13 19 4zM173 127q24 -8 48 -24q12 -11 5 -23q-4 -8 -23 -1
q-28 10 -45 27q-11 11 -5 19q3 8 20 2zM65 127q12 6 20 0q6 -5 -2 -17q-16 -19 -44 -37q-18 -9 -24 0q-6 10 5 21q24 23 45 33zM161 8h22q1 5 2 15q0 10 1 19q3 16 -27 17v-9q2 -25 2 -42zM95 8v50q-3 0 -24 -3q1 -15 2 -27q0 -13 1 -21q8 1 21 1zM135 60h-18q2 -17 4 -52
q3 1 13 1q-1 39 1 51z" />
    <glyph glyph-name="uni7761" unicode="&#x7761;" 
d="M200 90h-14v-21q1 -12 1 -17q5 -1 16 -1h15q20 -1 21 -14q0 -12 -19 -13h-33v-14q5 -1 16 -2h17q15 -3 14 -9q1 -11 -13 -12q-21 -2 -41 -3q-19 0 -50 1q-20 0 -20 12q0 7 18 10l28 2v15q-14 -1 -30 1q-20 1 -22 14q0 11 22 12q21 -1 30 1q-1 25 1 38h-12q-1 -31 -15 -27
q-16 -2 -11 28q-9 0 -16 3q1 -30 -2 -58q6 -5 7 -12q-2 -10 -18 -11q-29 -3 -41 -3q-6 -12 -14 -12q-15 -1 -15 31q-2 26 -2 59q0 31 1 81q1 18 11 19q7 0 11 -7q14 8 29 9q27 0 30 -36q1 -9 2 -21q0 -12 1 -24q7 3 18 5q0 16 11 15q8 -2 11 -13h14q-1 9 1 17q-13 -1 -33 1
q-4 0 -6 1q-15 1 -14 12q0 8 16 10h7q19 2 31 2q1 7 2 15q-2 0 -7 -1q-11 0 -15 1q-17 2 -17 13q-1 9 18 12q34 3 68 3q17 -3 19 -13q-3 -10 -15 -13q-7 -3 -30 -2q1 -8 1 -15h14q7 1 19 1q20 -2 21 -15q-2 -11 -20 -11q-3 -1 -10 -1q-15 0 -22 1q1 -10 1 -17q11 0 17 -1
q1 12 11 11q7 -2 10 -12q23 -2 22 -15q-1 -10 -19 -10q2 -28 -11 -25q-18 -3 -16 25zM73 72q-13 -2 -25 -1q0 -18 2 -38q11 1 22 3v18q1 12 1 18zM74 123q-14 -3 -28 -3q1 -8 1 -26h16q5 0 10 -1q1 10 1 30zM65 167q-3 0 -8 -2h-2q-7 -2 -13 2q1 -13 3 -26q14 4 28 1
q-1 3 -1 7q-1 10 -2 16q-1 1 -5 2z" />
    <glyph glyph-name="uni7AE5" unicode="&#x7ae5;" 
d="M172 119q37 -1 38 -38q0 -19 -1 -28q3 -3 3 -8q0 -8 -13 -7q-6 -1 -17 -1q-25 0 -36 1v-10q16 0 23 -1h17q14 -3 16 -11q-2 -6 -16 -7q-10 -2 -39 -1v-8q9 0 30 -1q19 0 30 -1q24 0 25 -14q0 -12 -24 -12q-26 1 -50 1q-64 1 -105 2q-28 -1 -24 12q-1 13 22 13h64v7
q-5 -1 -17 0q-17 1 -24 1q-18 0 -16 10q0 8 19 9h20q13 1 19 1q0 7 -1 9q-22 -1 -31 1q-5 -9 -12 -8q-14 -2 -16 14q-6 28 -2 57q1 12 9 14q7 -1 15 -7q8 4 29 7q46 4 65 4zM131 211q18 -2 21 -18h36q27 -2 27 -16q-1 -14 -31 -13q3 -8 -1 -12q15 0 23 -1h16q25 0 24 -13
t-28 -13q-12 -1 -33 -2q-92 -3 -148 -2q-24 -1 -25 13q0 10 26 12h9q17 2 30 2q-2 8 3 15q-35 -1 -34 15q0 11 22 11h17q8 1 23 1q3 21 23 21zM145 67v-10h17q12 1 18 2q3 13 0 28q-3 9 -12 10q-13 1 -25 0q1 -6 1 -12q8 1 17 1q11 -3 15 -10q-1 -6 -15 -8q-10 0 -16 -1z
M103 163q6 -5 8 -13q23 -1 36 1q-3 4 0 12h-44zM81 97l2 -14q8 1 34 1q-1 2 0 6q1 3 1 6q-35 -2 -37 1zM115 56v11q-17 -2 -31 0v-5q1 -4 1 -6h30z" />
    <glyph glyph-name="uni7AEF" unicode="&#x7aef;" 
d="M141 132h30h31q21 -1 24 -13q0 -10 -17 -12q-20 -3 -37 -2v-17q30 2 40 -2q11 -2 18 -14q9 -23 2 -70q-6 -28 -29 -28q-11 1 -23 11q-8 7 -7 14q4 11 18 8q13 -5 17 9q1 7 1 15v18q0 14 -19 15q2 -14 2 -39q-1 -15 -10 -14q-10 -1 -11 14v39q-5 0 -9 -1v-23q1 -15 2 -21
q0 -19 -11 -17q-9 -1 -10 10q-3 22 0 50q-9 -4 -17 1q9 -41 9 -64q-1 -20 -13 -20q-13 1 -16 16q-3 6 -2 31q-38 -22 -71 -22q-18 -1 -18 13q-1 8 11 14q13 5 34 10q9 31 15 59q2 11 11 11q10 -1 11 -11q-2 -25 -8 -54q9 0 15 -2q-1 10 1 24q0 8 4 10q5 2 12 -2q2 5 22 9
q0 3 1 9q0 7 1 11q-33 1 -32 14q-2 12 28 13zM168 206q14 -2 17 -14v-10q1 -5 1 -13h15q2 25 10 24q9 -1 16 -10q6 -18 2 -39q-3 -10 -11 -9q-9 -1 -15 9q-16 -1 -30 -1q-15 -1 -26 -2q-32 -3 -34 17q-3 10 0 26q3 9 9 10q12 -2 16 -18q-1 -10 19 -7q-1 10 1 23q0 15 10 14z
M42 147q12 1 25 1h24q15 -3 16 -13q-2 -13 -18 -13q-7 -1 -19 -2q-19 -1 -27 -1q-22 0 -23 15q0 11 22 13zM70 199q18 -3 21 -20q0 -23 -18 -22q-19 2 -20 21q0 19 17 21zM46 102q17 -2 19 -19q0 -21 -15 -20q-19 2 -21 24q0 14 17 15z" />
    <glyph glyph-name="uni7C73" unicode="&#x7c73;" 
d="M135 204q13 0 15 -22q1 -22 2 -43h25q11 1 34 1t22 -14q0 -13 -21 -12q-20 -2 -58 -1v-13q6 3 18 -8l66 -66q18 -17 6 -26q-12 -4 -29 7q-29 26 -61 67v-74q0 -26 -16 -27q-17 -1 -17 29v33q1 32 1 47q-26 -46 -63 -82q-18 -18 -27 -7q-14 9 8 32q3 3 8 9q34 38 53 61
q7 9 21 3q-1 0 0 7t1 8q-27 0 -40 -1q-15 0 -29 -1q-23 -1 -25 15q-3 10 24 11q14 1 30 1q13 1 39 1q-1 25 1 43q-2 25 12 22zM203 189q18 -1 20 -19q-1 -19 -20 -19q-19 1 -20 18q-1 20 20 20zM73 191q19 0 19 -18q0 -20 -18 -20q-20 1 -21 20q1 16 20 18z" />
    <glyph glyph-name="uni7ED8" unicode="&#x7ed8;" 
d="M217 74q16 -3 19 -13q-1 -11 -18 -12q-25 -2 -44 -2q-2 -12 -8 -29q-4 -8 5 -8q7 0 20 2q5 1 8 2q-1 0 -1 1q-3 4 -2 7q-3 10 4 15q9 3 20 -4q14 -11 22 -26q4 -15 -6 -22q-11 -2 -20 3q-1 2 -3 3q-2 2 -2 3q-27 -8 -62 -10q-27 2 -18 28q7 17 16 34q-5 0 -12 -1h-10
q-15 2 -15 13q0 10 18 14q15 2 36 3q21 0 53 -1zM79 195q8 -10 1 -19q-17 -20 -29 -39q-3 -5 3 -6q1 0 6 -1q6 -1 9 -1q3 2 9 8q2 3 3 4q10 9 18 4q7 -6 1 -19q-10 -17 -33 -50q-3 -3 -2 -5q2 -2 5 -1q3 0 9 1q6 0 10 1q15 -2 17 -12q-1 -12 -15 -16q-15 -4 -29 -5
q-15 0 -22 4q-21 11 -12 30q10 16 25 34q-20 1 -27 9q-13 12 -4 30q14 25 35 46q12 10 22 3zM171 200q10 -6 5 -20q9 0 19 -6q27 -15 47 -30q11 -12 4 -22q-9 -7 -22 1q-36 20 -56 43q-12 -19 -37 -53q-2 -2 -3 -4q-12 -12 -21 -5q-7 6 0 22q19 31 44 66q10 13 20 8zM101 2
q-26 -9 -63 -13q-16 -1 -18 10t13 16q43 11 62 12q13 0 18 -9q0 -10 -12 -16zM150 114q26 3 52 0q13 -3 15 -14q-2 -10 -14 -12q-10 -1 -25 -1q-16 0 -28 1q-14 1 -15 11q0 12 15 15z" />
    <glyph glyph-name="uni80B2" unicode="&#x80b2;" 
d="M87 73v-12q27 4 53 4q18 -1 19 -12q0 -11 -17 -12q-15 -1 -31 -1t-24 2q-2 -8 -1 -15h13q32 2 48 2q19 -1 20 -11q-1 -11 -19 -12q-12 -2 -64 -1q0 -6 -2 -20q-3 -17 -15 -17q-17 0 -16 28q0 24 10 84q2 17 13 17q7 0 11 -6q21 7 58 9q54 4 59 -43q1 -13 2 -27
q0 -15 1 -27q-1 -33 -28 -35q-32 3 -35 22q1 11 20 10q10 -3 11 7v20q-1 11 -2 24q-1 30 -30 28q-30 -2 -54 -6zM128 214q24 0 22 -28q28 -1 69 -2q24 -3 24 -13q0 -12 -24 -13q-4 -1 -11 -1q-64 -2 -97 -1q-5 -4 -13 -14q6 8 -1 -1q-6 -7 -4 -10q2 -4 11 -3q10 -1 25 0
t38 5q-8 9 -4 16q3 7 18 3q20 -11 33 -24q10 -15 1 -25q-11 -7 -29 9q-34 -5 -67 -7q-32 -2 -52 -1q-31 4 -13 31q4 5 12 14q2 3 6 7q-22 -1 -35 1q-20 1 -20 12q0 10 21 12q20 1 64 3q4 0 7 1q-6 26 19 29z" />
    <glyph glyph-name="uni8457" unicode="&#x8457;" 
d="M139 119v-12h7q18 11 48 29q18 11 24 5q7 -8 -2 -16q-11 -9 -25 -18q21 0 30 -1q21 -1 21 -10q-1 -12 -21 -13q-4 -1 -10 -1q-37 -2 -57 -1q-11 -7 -18 -10q6 -1 18 0q11 1 18 1q38 -1 42 -29q1 -12 0 -22q0 -10 -2 -21q3 -4 4 -10q0 -12 -20 -12q-22 -1 -50 -1
q-30 1 -54 2q-3 -9 -10 -9q-12 0 -15 17q-3 13 -3 38q-15 -9 -26 -14q-15 -7 -21 3q-5 11 12 23q9 5 27 16q30 18 46 27q-13 -1 -29 -1t-31 1q-23 0 -22 13q-1 9 23 11h7q39 2 60 2v12q-27 -1 -40 1q-17 0 -16 12q-1 9 17 10q19 1 41 2q1 10 7 19h-15q-2 -18 -16 -18
q-14 -1 -16 17q-13 -1 -29 1q-18 1 -18 12q0 10 19 12h13q9 1 14 2q2 21 14 21q10 1 17 -20q47 -1 69 1q3 19 14 19q10 1 14 -19q11 0 19 -1q18 -1 18 -11q0 -13 -16 -14q-9 -2 -21 -1q-2 -18 -15 -18q-12 0 -15 17h-38q4 -7 7 -18q12 0 18 -1q17 -1 17 -10q1 -12 -16 -13
q-3 0 -8 -1h-10zM107 51q-3 -2 -8 -5l-8 -4q-1 -2 0 -3q1 -2 1 -3q16 1 34 1h37q16 -2 17 -10q0 -9 -17 -9q-23 -2 -39 -2q-17 0 -30 2q1 -8 1 -18q32 0 88 2q3 16 3 31q1 18 -18 18h-33q-14 -2 -28 0z" />
    <glyph glyph-name="uni8BE2" unicode="&#x8be2;" 
d="M123 195q11 8 20 3q7 -7 2 -19q21 4 51 4q36 -2 41 -31q4 -29 5 -58q0 -29 -4 -69q-4 -50 -28 -51q-22 -2 -35 14q-9 11 -2 17q5 6 17 2q12 -5 16 10q10 70 1 121q-6 21 -19 20q-56 -5 -54 3q-15 -19 -26 -27q-14 -9 -22 -3q-10 8 2 23q12 19 35 41zM156 132
q30 -4 31 -35v-28t-1 -28q3 -3 3 -9q1 -10 -15 -10q-10 -2 -47 -1q-4 -15 -14 -14q-13 -1 -15 23q-2 15 -3 37q0 23 1 45q1 14 11 14q5 0 13 -6q11 11 36 12zM48 125q27 1 25 -31q-5 -40 -6 -70q0 -5 1 -6t4 2q14 13 21 5q7 -13 -4 -25q-20 -23 -33 -21q-23 -2 -19 40
q0 25 4 65q0 5 1 8q0 5 -6 5q-20 -1 -21 14q-6 12 33 14zM61 196q22 -3 23 -22q-4 -20 -21 -21q-21 1 -21 21q-1 20 19 22zM161 74q-6 -9 -34 -9q-1 -16 1 -22q22 -1 32 1v14t1 16zM152 110q-8 1 -13 0q-8 -2 -16 -1q1 -11 3 -21q25 6 35 -7q-1 3 -1 9q-1 6 -1 10
q-1 8 -7 10z" />
    <glyph glyph-name="uni8BFB" unicode="&#x8bfb;" 
d="M151 206q11 -1 18 -18q15 0 22 -1h16q15 -3 17 -13q0 -9 -12 -10q-19 -3 -41 -3q-1 -2 0 -5q1 -4 1 -5q18 1 44 -4q21 -5 20 -23q-4 -33 -29 -41q-16 0 -6 24q4 9 1 13t-15 4q-40 1 -75 -4q-32 -6 -31 10q-1 11 17 15q10 2 22 3q11 1 20 2v10q-7 -1 -15 -1q-7 1 -16 3
q-14 1 -13 10q-1 10 13 13q6 1 21 2q5 0 11 1q1 17 10 18zM173 116q8 -1 9 -13q0 -11 -14 -55h24q11 0 21 -1q17 -3 19 -13q2 -14 -35 -14q24 -20 23 -28q-1 -14 -15 -15q-9 0 -17 10q-12 13 -12 21q-1 5 5 11h-23q-5 -16 -14 -34q-7 -13 -15 -13q-13 1 -13 13q-1 8 12 32
h-23q-11 2 -11 12q-1 9 11 12q15 3 33 5l6 18q10 29 13 36q5 18 16 16zM41 128q32 -1 26 -37q-5 -22 -7 -61q-1 -6 1 -8q2 -1 8 2q18 9 20 -6q-1 -12 -13 -23q-13 -13 -25 -13q-22 -3 -20 35q0 24 7 70q1 5 -1 7q-1 2 -6 2q-18 -1 -21 16q1 15 31 16zM63 193q19 -1 20 -18
q-2 -20 -20 -21q-20 1 -21 19q0 19 21 20zM120 109q16 -1 17 -17q-2 -12 -15 -13q-17 1 -18 14q0 15 16 16zM106 73q20 -1 21 -15q-1 -12 -16 -12q-18 0 -19 16q0 10 14 11z" />
    <glyph glyph-name="uni8D26" unicode="&#x8d26;" 
d="M153 203q13 2 14 -19v-32v-42h17h33q15 -1 16 -10q-1 -11 -14 -12q-32 -6 -67 -8q5 -10 4 -30q-1 -9 -1 -18q0 -8 1 -22q-1 -5 2 -6q3 0 9 4q11 6 16 1q10 -9 -4 -20q-19 -17 -36 -15q-16 5 -17 37q-1 47 10 69q-7 0 -14 2q-4 -27 -17 -25q-13 -3 -10 27q2 44 1 59
q0 14 -5 19q-6 4 -24 1q-13 -2 -18 2q1 -11 1 -36v-60q0 -17 -15 -16q-14 0 -14 16q-1 31 0 53q1 23 3 43q0 20 10 21q8 3 13 -10q9 11 46 14q25 -1 30 -26q4 -23 1 -62q3 1 13 3q1 0 2 1q-1 26 0 42q1 18 3 30q2 26 11 25zM80 127q10 -2 11 -19q-7 -60 -27 -118
q-8 -22 -21 -18q-12 5 -7 24q15 51 29 113q4 17 15 18zM185 71q33 -32 53 -60q7 -11 -3 -17q-10 -5 -24 6q-21 19 -43 55q-6 10 -1 17q7 8 18 -1zM222 184q8 -7 5 -19q-10 -21 -29 -43q-10 -10 -18 -3q-10 6 -1 24q6 14 27 37q9 9 16 4zM94 33q16 -2 18 -18q1 -17 -18 -17
q-18 2 -19 17q2 16 19 18z" />
    <glyph glyph-name="uni8D39" unicode="&#x8d39;" 
d="M106 201h29q1 11 10 11q10 0 12 -12q14 -1 27 -2q20 -4 23 -16q1 -6 1 -15q6 -3 6 -11q-1 -9 -16 -9h-35v-6q17 -1 31 -2q13 -1 22 -2q19 -4 21 -22q1 -19 -6 -25q-10 -10 -27 -6q9 -11 11 -29q1 -18 -2 -35q-4 -16 -21 -12q-12 4 -11 17q1 17 2 28q-2 13 -14 17
q-38 3 -71 -2q-29 -4 -37 0q4 -28 3 -47q-2 -15 -13 -19q-15 -2 -19 13q-5 26 -2 60q1 13 12 16q8 0 13 -7q4 4 14 8q1 10 4 21q-12 -2 -31 -1q-21 0 -19 17q1 13 9 32q5 8 14 5q2 2 33 2v6q1 3 1 4q-15 -1 -29 -2q-14 -2 -16 13q0 9 16 11q10 1 32 1q2 11 10 11
q12 0 13 -11zM127 65q10 -8 5 -22q-20 -39 -53 -69q-14 -8 -27 -1q-11 12 1 24q27 20 55 61q8 11 19 7zM151 22q23 -5 49 -22q15 -9 8 -19q-5 -7 -21 -5q-21 5 -48 23q-14 7 -7 17q4 9 19 6zM163 115q-3 -14 -3 -15q17 -1 35 -9q-4 4 -2 10q1 7 8 8q4 0 5 2t-2 3
q-12 1 -41 1zM103 113q-2 -3 -3 -8t-2 -7q15 1 36 2q-2 6 -1 13h-30zM107 169h26v9h-7h-19v-9zM58 147q-5 -1 -5 -4q-1 -5 4 -5q8 -2 19 0v2q1 3 2 8q-16 0 -20 -1zM133 140v8h-25q-1 -1 -1 -5l-1 -4h15q8 1 12 1zM161 170h20q-1 5 -5 7q-5 1 -15 1v-8z" />
    <glyph glyph-name="uni8F7D" unicode="&#x8f7d;" 
d="M152 209q12 2 14 -19q1 -9 3 -23q2 -16 4 -22q19 0 28 -1h20q17 -2 18 -13q-1 -10 -21 -13q-20 -2 -40 -2q0 -3 1 -8q3 -18 6 -27q4 5 7 10q4 4 5 6q10 15 23 6q6 -5 0 -21q-6 -11 -25 -42q2 -7 7 -22q2 -5 4 -5q3 0 6 5q14 20 24 12q11 -6 2 -28q-12 -29 -27 -29
q-24 1 -38 39q-10 -12 -18 -14q-12 -5 -17 5q-12 -3 -29 -5q1 -30 -15 -29q-19 -2 -16 26q-12 -1 -33 -1q-15 2 -17 8q0 10 15 12q8 0 29 3q5 0 8 1v10q-16 -1 -22 2q-19 4 -12 26q1 7 3 14q-23 2 -21 12q-4 11 32 14q3 4 6 12q1 2 3 5h-35q-19 1 -20 14q0 10 22 13
q20 1 32 2q-1 9 1 13q-13 -1 -25 2q-10 1 -10 12q-2 8 11 10q4 0 11 1q9 2 15 3q2 25 15 24q10 2 13 -21h18q13 -2 16 -12q0 -12 -12 -14q-9 -3 -21 -2v-14h44q-1 4 -2 13q-2 22 -1 32q-2 20 11 20zM108 30v-7q25 2 33 -7q3 5 10 16t11 17q-9 35 -13 66q-26 -2 -66 -1
q6 -8 3 -16h14q13 1 19 1q15 -1 16 -11q-1 -11 -14 -13q-10 -2 -21 -3q-10 -1 -22 -1q-2 -6 -4 -11q-4 -9 9 -8q3 15 11 15q7 0 9 -13q32 5 31 -10q2 -11 -26 -14zM210 197q19 -2 20 -21q-2 -19 -20 -20q-19 2 -20 21q0 17 20 20z" />
    <glyph glyph-name="uni9177" unicode="&#x9177;" 
d="M191 206q16 -3 17 -28q25 -2 26 -14q1 -11 -25 -12v-25q38 0 37 -13q0 -13 -23 -15q-10 -1 -28 -2h-29q-22 -1 -24 3q0 -67 1 -71q0 -6 1 -22q6 -5 6 -11q1 -11 -24 -12q-44 -3 -82 0q-6 -10 -15 -8q-11 0 -11 27q-1 24 0 61q2 34 6 59q2 25 10 24q5 -2 11 -9q6 5 18 8
q-1 17 1 21q-27 -1 -32 1q-17 4 -15 14q-2 13 31 15q32 1 61 -1q26 -3 26 -15q-2 -12 -24 -12q-2 -5 -4 -17v-3q29 -5 33 -30q2 2 20 4q4 0 15 1q3 0 5 1v27q-10 -1 -16 1q-12 -21 -24 -14q-13 2 -8 22q3 11 12 28q6 12 16 9q11 -5 10 -22q1 -1 5 0q3 1 5 1q0 26 11 29z
M155 82q12 0 18 -12q6 10 30 12q24 -2 32 -21q6 -19 -4 -48q13 -9 8 -17q-3 -6 -20 -8q-18 -1 -36 0q-2 -8 -11 -10q-16 -2 -18 19q-4 27 -4 66q-1 19 5 19zM49 125v-17q1 -9 1 -28q-2 -17 -1 -45q14 6 49 4q16 -2 16 -11q-1 -12 -23 -12h-26q-11 -1 -16 4q0 -7 -1 -14
q27 -1 70 2q0 16 -1 26v20q-37 -6 -31 19q-1 7 0 26q1 18 1 26q-2 0 -5 -1q-2 -27 -6 -63q-4 -18 -18 -12q-13 3 -5 25q6 23 9 48h-5q-6 1 -8 3zM196 58q-13 -4 -21 1q1 -5 6 -48q12 1 22 3q7 17 7 35q0 13 -14 9zM117 114q-1 15 -12 13q0 -6 -1 -16q0 -18 1 -30
q-3 -11 12 -7v13v27zM92 168h-11q1 -4 1 -8q1 -3 1 -12h6q0 2 1 10q1 7 2 10z" />
    <glyph glyph-name="uni9645" unicode="&#x9645;" 
d="M66 190q17 4 33 -2q15 -7 11 -31q-3 -21 -12 -39q-4 -6 1 -13q12 -24 7 -60q-4 -17 -16 -23q-14 -7 -35 4q0 -15 -1 -26q-2 -21 -15 -22q-15 2 -15 24q-1 143 2 169q1 16 12 18q7 0 11 -8q4 6 17 9zM221 131q19 -2 20 -13q0 -12 -15 -13q-5 -1 -18 -2h-23q1 -7 4 -25
q0 -2 1 -2q2 -30 1 -68q-2 -12 -8 -24q-10 -9 -27 -4q-20 9 -18 21q2 11 17 10q5 -1 7 5q2 40 1 58q-2 14 -1 29h-32q-19 2 -19 13q-3 11 20 13q56 5 90 2zM52 170v-9q3 -76 3 -107q6 0 12 -3q8 -5 12 5q4 29 -9 50q-5 5 -1 14q4 8 13 32q1 3 2 4q2 11 -7 11q-21 -5 -25 3z
M198 188q21 -2 24 -13q1 -15 -24 -14q-17 -1 -27 -1t-22 1q-23 3 -23 15q-3 10 22 12q26 1 50 0zM118 55q16 9 24 -11q5 -20 -10 -25q-19 -6 -24 12q-7 16 10 24zM221 58q15 2 21 -12q3 -19 -12 -26q-18 -3 -23 14q-3 21 14 24z" />
    <glyph glyph-name="uni9650" unicode="&#x9650;" 
d="M179 196q43 -1 45 -38q0 -28 -4 -54q4 -6 5 -11q-2 -11 -19 -12q-31 -3 -65 -4q-2 -32 1 -57q0 -5 3 -6q2 0 6 3q7 6 14 6q12 -1 13 -13q-1 -8 -16 -22q-9 -9 -20 -10q-27 2 -29 40q-1 35 1 69q3 33 8 56q2 16 11 16q7 -1 11 -11q41 4 52 -1q4 27 -21 22q-15 0 -29 -3
q-24 -5 -26 11q-2 8 15 13q19 5 44 6zM40 192q38 7 54 -1q19 -13 10 -40q-4 -14 -10 -24q-6 -8 0 -13q17 -17 16 -46q-1 -38 -27 -39q-19 1 -27 10v-39q-1 -27 -16 -27q-15 1 -15 25q-1 23 0 60q1 40 3 80q1 22 12 22q10 1 13 -20q0 -11 1 -23q2 -41 2 -54q16 -6 21 -4t4 16
q0 17 -17 34q-12 9 -2 21q8 11 13 25q4 14 -10 15q-10 0 -23 -3q-22 -2 -24 11q-2 10 22 14zM208 78q19 0 19 -19q-3 -23 -26 -17q4 -5 12 -14q13 -13 23 -21q16 -12 5 -24q-10 -8 -27 5q-36 32 -57 65q-9 14 0 20q7 4 18 -4q2 -5 17 -18q-5 24 16 27zM195 127
q-17 -3 -51 -2q-2 -7 -1 -25q23 4 49 7q3 11 3 20z" />
    <glyph glyph-name="uni9875" unicode="&#x9875;" 
d="M210 192q29 -1 27 -15q1 -13 -25 -13q-29 -2 -81 -1q-1 -6 -2 -15v-2q74 7 82 -32q1 -10 2 -25v-35q-3 -27 -17 -26q-18 -2 -14 28q1 9 1 17q1 7 1 23q0 22 -20 23q-13 1 -28 0q-15 0 -31 -2q-20 -4 -27 4q1 -34 -3 -71q-3 -24 -15 -23q-14 -1 -15 24q-1 13 0 31t4 43
q3 17 14 19q7 0 12 -10q10 4 25 8q2 11 5 20q-40 -1 -61 1q-25 1 -25 14q-2 12 26 13q32 1 77 2h88zM149 94q9 -8 -1 -26q-33 -49 -76 -87q-22 -18 -30 -7q-9 11 9 26q47 49 74 84q12 17 24 10zM165 34q40 -13 67 -31q14 -8 10 -18q-6 -10 -24 -5q-32 11 -66 30
q-15 10 -11 20q4 9 24 4z" />
    <glyph glyph-name="uni9986" unicode="&#x9986;" 
d="M134 128q5 1 11 -8q11 6 35 7q31 1 39 -25q3 -9 0 -19q3 -4 2 -10q-1 -10 -18 -10q-17 -2 -52 -1v-19q12 8 39 9q31 -3 37 -23q4 -14 -1 -29q6 -3 5 -10q2 -11 -27 -11q-11 1 -29 2q-16 0 -27 1q-4 -9 -14 -8q-15 0 -14 30q1 86 2 94q1 1 1 2q1 27 11 28zM168 204
q15 0 24 -12q2 -6 -2 -18q19 -1 29 -4q20 -8 18 -34q-2 -22 -15 -20q-17 0 -13 17q3 16 -10 18q-16 -1 -31 -1q-13 -1 -16 -2q-7 -3 -11 -4t-6 0q-2 -3 -3 -7t-2 -6q-3 -11 -15 -9q-10 1 -11 18q-2 14 1 23q4 10 13 11q9 -2 12 -11q10 5 35 9q-11 6 -10 15q-1 14 13 17z
M53 116q14 2 13 -26q-1 -53 1 -61q-1 -9 2 -10q2 0 8 8q6 10 17 6q12 -5 4 -24q-12 -32 -34 -30q-21 1 -27 26q-2 9 -1 38q1 27 4 47q2 27 13 26zM39 177q15 24 25 18q12 -8 4 -26q17 4 22 1q11 -7 10 -21q-1 -5 -2 -9q-1 -9 -3 -18q-6 -19 -17 -14q-10 1 -8 17q3 8 3 12
q2 7 -6 7q-1 0 -4 -1h-7q-1 -2 -6 -9t-5 -8q-12 -17 -23 -6q-10 7 -2 24q10 20 19 33zM152 27q0 -3 -1 -10v-16h21q22 2 29 2q1 2 2 12q3 13 -31 9q-16 0 -20 3zM166 105q-11 -3 -17 -1q1 -7 1 -21q3 0 16 1q18 2 26 2q8 18 -6 19h-20z" />
    <glyph glyph-name="uni9996" unicode="&#x9996;" 
d="M50 164h26q-8 9 -6 20q2 13 18 15q20 -1 21 -18q-1 -10 -6 -17q15 1 47 1q1 1 6 13q3 7 4 9q8 16 21 13t9 -20q-1 -3 -5 -10l-1 -4q5 0 19 -1h18q29 0 28 -13q3 -15 -31 -14q-18 -1 -46 -1q-19 1 -30 1q-1 -2 -2 -6q-1 -3 -1 -4q13 1 33 1q40 -4 41 -46q1 -47 -3 -78
q8 -5 8 -11q2 -12 -38 -12q-18 0 -29 1h-24q-25 0 -53 1q-5 -11 -12 -10q-20 0 -20 40q-1 47 3 86q2 24 13 21q6 0 8 -6q13 6 38 11q0 2 3 7q1 3 2 5h-61q-38 -2 -33 14q-4 13 35 12zM152 104q-27 1 -46 -2q-18 -3 -26 -4q-8 0 -10 2v-8q1 -6 1 -8q14 2 31 3q18 1 37 2
q27 0 27 -13q1 -12 -26 -12q-2 0 -8 -1q-45 0 -60 3v-20q20 6 65 6q27 -1 28 -12q0 -14 -25 -13q-52 -3 -67 0q1 -6 1 -23q29 3 103 3q3 17 5 71q3 25 -30 26z" />
  </font>
</defs>
</svg>
